G04 Layer: TopLayer*
G04 EasyEDA v6.4.0, 2020-07-18T08:58:50+05:30*
G04 8da112671cf046a09353fb5968b32747,f1a86d1669934288b337f1190552c02f,10*
G04 Gerber Generator version 0.2*
G04 Scale: 100 percent, Rotated: No, Reflected: No *
G04 Dimensions in inches *
G04 leading zeros omitted , absolute positions ,2 integer and 4 decimal *
%FSLAX24Y24*%
%MOIN*%
G90*
G70D02*

%ADD11C,0.094488*%
%ADD12C,0.086614*%
%ADD13C,0.074000*%
%ADD14C,0.049500*%
%ADD15R,0.049500X0.049500*%
%ADD16C,0.070866*%
%ADD17R,0.060000X0.060000*%
%ADD18C,0.060000*%

%LPD*%
G54D11*
G01X2650Y15615D03*
G01X2650Y17584D03*
G01X2650Y19965D03*
G01X2650Y21934D03*
G54D12*
G01X3250Y10968D03*
G01X3250Y9000D03*
G01X3250Y7031D03*
G01X22450Y16031D03*
G01X22450Y18000D03*
G01X22450Y19968D03*
G54D13*
G01X10300Y7300D03*
G01X10300Y10300D03*
G01X9350Y7300D03*
G01X9350Y10300D03*
G01X2300Y13850D03*
G01X5300Y13850D03*
G01X2300Y12700D03*
G01X5300Y12700D03*
G01X13050Y11850D03*
G01X16050Y11850D03*
G01X16050Y9850D03*
G01X13050Y9850D03*
G54D14*
G01X15350Y6550D03*
G01X14850Y7050D03*
G54D15*
G01X15350Y7550D03*
G54D14*
G01X12550Y6550D03*
G01X12050Y7050D03*
G54D15*
G01X12550Y7550D03*
G54D11*
G01X23200Y4734D03*
G01X23200Y2765D03*
G01X2600Y2665D03*
G01X2600Y4634D03*
G01X23300Y10034D03*
G01X23300Y8065D03*
G54D16*
G01X2575Y1000D03*
G01X5724Y1000D03*
G54D17*
G01X7200Y18800D03*
G54D18*
G01X7200Y17800D03*
G01X7200Y16800D03*
G01X7200Y15800D03*
G01X7200Y14800D03*
G01X7200Y13800D03*
G01X7200Y12800D03*
G01X7200Y11800D03*
G01X7200Y10800D03*
G01X7200Y9800D03*
G01X7200Y8800D03*
G01X7200Y7800D03*
G01X7200Y6800D03*
G01X7200Y5800D03*
G01X7200Y4800D03*
G01X18200Y4800D03*
G01X18200Y5800D03*
G01X18200Y6800D03*
G01X18200Y7800D03*
G01X18200Y8800D03*
G01X18200Y9800D03*
G01X18200Y10800D03*
G01X18200Y11800D03*
G01X18200Y12800D03*
G01X18200Y13800D03*
G01X18200Y14800D03*
G01X18200Y15800D03*
G01X18200Y16800D03*
G01X18200Y17800D03*
G01X18200Y18800D03*
M00*
M02*
