;Layer: Drill PTH
;EasyEDA v6.4.0, 2020-07-18T08:58:50+05:30
;8da112671cf046a09353fb5968b32747,f1a86d1669934288b337f1190552c02f,10
;Gerber Generator version 0.2
M48
INCH,LZ,00.0000
;Holesize 1 = 0.032 INCH
T01C0.032
;Holesize 2 = 0.035 INCH
T02C0.035
;Holesize 3 = 0.036 INCH
T03C0.036
;Holesize 4 = 0.039 INCH
T04C0.039
;Holesize 5 = 0.055 INCH
T05C0.055
;Holesize 6 = 0.063 INCH
T06C0.063
%
G05
G90
T01
X+015350Y+006550
X+014850Y+007050
X+015350Y+007550
X+012550Y+006550
X+012050Y+007050
X+012550Y+007550
T02
X+010300Y+007300
X+010300Y+010300
X+009350Y+007300
X+009350Y+010300
X+002300Y+013850
X+005300Y+013850
X+002300Y+012700
X+005300Y+012700
X+013050Y+011850
X+016050Y+011850
X+016050Y+009850
X+013050Y+009850
T03
X+007200Y+018800
X+007200Y+017800
X+007200Y+016800
X+007200Y+015800
X+007200Y+014800
X+007200Y+013800
X+007200Y+012800
X+007200Y+011800
X+007200Y+010800
X+007200Y+009800
X+007200Y+008800
X+007200Y+007800
X+007200Y+006800
X+007200Y+005800
X+007200Y+004800
X+018200Y+004800
X+018200Y+005800
X+018200Y+006800
X+018200Y+007800
X+018200Y+008800
X+018200Y+009800
X+018200Y+010800
X+018200Y+011800
X+018200Y+012800
X+018200Y+013800
X+018200Y+014800
X+018200Y+015800
X+018200Y+016800
X+018200Y+017800
X+018200Y+018800
T04
X+002575Y+001000
X+005724Y+001000
T05
X+003250Y+010968
X+003250Y+009000
X+003250Y+007031
X+022450Y+016031
X+022450Y+018000
X+022450Y+019968
T06
X+002650Y+015615
X+002650Y+017584
X+002650Y+019965
X+002650Y+021934
X+023200Y+004734
X+023200Y+002765
X+002600Y+002665
X+002600Y+004634
X+023300Y+010034
X+023300Y+008065
M30
